<svg xmlns="http://www.w3.org/2000/svg" xmlns:xlink="http://www.w3.org/1999/xlink" width="145" zoomAndPan="magnify" viewBox="0 0 108.75 30.000001" height="40" preserveAspectRatio="xMidYMid meet" version="1.0"><defs><g/><clipPath id="1fe1b00fe8"><path d="M 1.632812 0 L 106.875 0 L 106.875 29.03125 L 1.632812 29.03125 Z M 1.632812 0 " clip-rule="nonzero"/></clipPath><clipPath id="90627542d8"><path d="M 4.480469 2.777344 L 54.308594 2.777344 L 54.308594 26.339844 L 4.480469 26.339844 Z M 4.480469 2.777344 " clip-rule="nonzero"/></clipPath></defs><g clip-path="url(#1fe1b00fe8)"><path fill="#ffffff" d="M 1.632812 0 L 107.117188 0 L 107.117188 36.375 L 1.632812 36.375 Z M 1.632812 0 " fill-opacity="1" fill-rule="nonzero"/><path fill="#ffffff" d="M 1.632812 0 L 107.117188 0 L 107.117188 29.097656 L 1.632812 29.097656 Z M 1.632812 0 " fill-opacity="1" fill-rule="nonzero"/><path fill="#ffffff" d="M 1.632812 0 L 107.117188 0 L 107.117188 29.097656 L 1.632812 29.097656 Z M 1.632812 0 " fill-opacity="1" fill-rule="nonzero"/></g><g clip-path="url(#90627542d8)"><path fill="#000000" d="M 4.480469 2.777344 L 54.589844 2.777344 L 54.589844 26.582031 L 4.480469 26.582031 Z M 4.480469 2.777344 " fill-opacity="1" fill-rule="nonzero"/></g><g fill="#ffffff" fill-opacity="1"><g transform="translate(12.565673, 18.230152)"><g><path d="M 4.679688 0.148438 C 7.113281 0.148438 8.75 -1.695312 8.707031 -4.296875 L 4.410156 -4.296875 L 4.410156 -3.347656 L 7.632812 -3.347656 C 7.429688 -1.855469 6.296875 -0.847656 4.703125 -0.847656 C 2.929688 -0.847656 1.671875 -2.125 1.671875 -3.957031 C 1.671875 -5.789062 2.917969 -7.066406 4.691406 -7.066406 C 5.914062 -7.066406 6.886719 -6.46875 7.382812 -5.449219 L 8.46875 -5.449219 C 7.960938 -7.011719 6.46875 -8.0625 4.660156 -8.0625 C 2.339844 -8.0625 0.65625 -6.332031 0.65625 -3.957031 C 0.65625 -1.570312 2.351562 0.148438 4.679688 0.148438 Z M 4.679688 0.148438 "/></g></g></g><g fill="#ffffff" fill-opacity="1"><g transform="translate(22.75056, 18.230152)"><g><path d="M 1.152344 0 L 5.992188 0 L 5.992188 -0.949219 L 2.148438 -0.949219 L 2.148438 -7.914062 L 1.152344 -7.914062 Z M 1.152344 0 "/></g></g></g><g fill="#ffffff" fill-opacity="1"><g transform="translate(29.951299, 18.230152)"><g><path d="M 1.152344 0 L 6.082031 0 L 6.082031 -0.925781 L 2.148438 -0.925781 L 2.148438 -3.574219 L 5.675781 -3.574219 L 5.675781 -4.488281 L 2.148438 -4.488281 L 2.148438 -6.988281 L 5.960938 -6.988281 L 5.960938 -7.914062 L 1.152344 -7.914062 Z M 1.152344 0 "/></g></g></g><g fill="#ffffff" fill-opacity="1"><g transform="translate(37.626789, 18.230152)"><g><path d="M 1.152344 0 L 2.136719 0 L 2.136719 -6.195312 L 6.511719 0 L 7.441406 0 L 7.441406 -7.914062 L 6.46875 -7.914062 L 6.46875 -1.71875 L 2.09375 -7.914062 L 1.152344 -7.914062 Z M 1.152344 0 "/></g></g></g><g fill="#000000" fill-opacity="1"><g transform="translate(62.661656, 18.291045)"><g><path d="M 0.835938 0 L 4.195312 0 C 6.75 0 8.445312 -1.570312 8.445312 -3.957031 C 8.445312 -6.332031 6.75 -7.914062 4.195312 -7.914062 L 0.835938 -7.914062 Z M 3.121094 -2.046875 L 3.121094 -5.867188 L 4.128906 -5.867188 C 5.335938 -5.867188 6.117188 -5.121094 6.117188 -3.957031 C 6.117188 -2.792969 5.335938 -2.046875 4.128906 -2.046875 Z M 3.121094 -2.046875 "/></g></g></g><g fill="#000000" fill-opacity="1"><g transform="translate(71.491942, 18.291045)"><g><path d="M 0.0546875 0 L 2.476562 0 L 2.90625 -1.121094 L 5.609375 -1.121094 L 6.039062 0 L 8.46875 0 L 5.394531 -7.914062 L 3.132812 -7.914062 Z M 3.378906 -2.792969 L 4.261719 -5.246094 L 5.144531 -2.792969 Z M 3.378906 -2.792969 "/></g></g></g><g fill="#000000" fill-opacity="1"><g transform="translate(80.016956, 18.291045)"><g><path d="M 0.835938 0 L 3.121094 0 L 3.121094 -7.914062 L 0.835938 -7.914062 Z M 0.835938 0 "/></g></g></g><g fill="#000000" fill-opacity="1"><g transform="translate(83.974194, 18.291045)"><g><path d="M 0.835938 0 L 6.355469 0 L 6.355469 -2.113281 L 3.121094 -2.113281 L 3.121094 -7.914062 L 0.835938 -7.914062 Z M 0.835938 0 "/></g></g></g><g fill="#000000" fill-opacity="1"><g transform="translate(90.611042, 18.291045)"><g><path d="M 2.941406 0 L 5.210938 0 L 5.210938 -2.757812 L 8.097656 -7.914062 L 5.507812 -7.914062 L 4.070312 -5.078125 L 3.460938 -6.277344 L 2.625 -7.914062 L 0.0546875 -7.914062 L 2.941406 -2.746094 Z M 2.941406 0 "/></g></g></g></svg>